<svg xmlns="http://www.w3.org/2000/svg" xmlns:xlink="http://www.w3.org/1999/xlink" id="Layer_1" x="0" y="0" version="1.1" viewBox="0 0 100 100" xml:space="preserve" style="enable-background:new 0 0 100 100"><style type="text/css">.st0,.st1{opacity:.7;fill:#ff9800}.st1{fill:#03a9f4}.st2{fill:#8bc34a}.st2,.st3,.st4{opacity:.7}.st3{fill:#9c27b0}.st4{fill:#f44336}.st5{fill:#009688}.st5,.st6,.st7{opacity:.7}.st6{fill:#3f51b5}.st7{fill:#ffeb3b}.st8{fill:#fff}</style><g><g><ellipse cx="50" cy="33.7" class="st0" rx="15.6" ry="32.7"/><ellipse cx="50" cy="66.3" class="st1" rx="15.6" ry="32.7"/><ellipse cx="66.3" cy="50" class="st2" rx="32.7" ry="15.6"/><ellipse cx="33.7" cy="50" class="st3" rx="32.7" ry="15.6"/><ellipse cx="38.5" cy="38.5" class="st4" rx="15.6" ry="32.7" transform="matrix(0.7071 -0.7071 0.7071 0.7071 -15.9298 38.4579)"/><ellipse cx="61.5" cy="61.5" class="st5" rx="15.6" ry="32.7" transform="matrix(0.7071 -0.7071 0.7071 0.7071 -25.4916 61.5421)"/><ellipse cx="38.5" cy="61.5" class="st6" rx="32.7" ry="15.6" transform="matrix(0.7071 -0.7071 0.7071 0.7071 -32.2528 45.2191)"/><ellipse cx="61.5" cy="38.5" class="st7" rx="32.7" ry="15.6" transform="matrix(0.7071 -0.7071 0.7071 0.7071 -9.1686 54.7809)"/></g><circle cx="50" cy="50" r="12.6" class="st8"/></g></svg>